<svg version="1.2" xmlns="http://www.w3.org/2000/svg" viewBox="0 0 400 400" width="400" height="400"><style>.a{fill:#fff9f0}</style><path class="a" d="m213.1 199c0-60.9-38.9-95.6-89.7-95.6-51.1 0-89.7 34.7-89.7 95.6 0 60.6 38.6 95.5 89.7 95.5 50.8 0 89.7-34.7 89.7-95.5zm-41.1 0c0 39.4-19.2 60.8-48.6 60.8-29.5 0-48.7-21.4-48.7-60.8 0-39.4 19.2-60.8 48.7-60.8 29.4 0 48.6 21.4 48.6 60.8zm34.2 0c0-60.9-39-95.6-89.8-95.6-51 0-89.7 34.7-89.7 95.6 0 60.6 38.7 95.5 89.7 95.5 50.8 0 89.8-34.7 89.8-95.5zm-41.1 0c0 39.4-19.3 60.8-48.7 60.8-29.4 0-48.6-21.4-48.6-60.8 0-39.4 19.2-60.8 48.6-60.8 29.4 0 48.7 21.4 48.7 60.8zm72.3 93l14.2-42.4h69.2l14.2 42.4h43.4l-66-186h-52.2l-66.2 186zm24.5-73.1l23.6-70.4h1.5l23.6 70.4zm-31.5 73.1l14.2-42.4h69.2l14.2 42.4h43.4l-66.1-186h-52.2l-66.1 186zm24.5-73.1l23.6-70.4h1.5l23.6 70.4z"/></svg>